<svg width="49" height="42" viewBox="0 0 49 42" fill="none" xmlns="http://www.w3.org/2000/svg">
<path d="M41 10V1.5H2V40.5H41V32" stroke="white" stroke-width="3"/>
<path d="M22.204 15.704V17.496H19.084V27H16.828V17.496H13.724V15.704H22.204ZM33.5099 29.064L31.7499 26.952C31.3232 27.0587 30.8539 27.112 30.3419 27.112C29.2859 27.112 28.3259 26.8667 27.4619 26.376C26.6085 25.8853 25.9312 25.1973 25.4299 24.312C24.9392 23.4267 24.6939 22.4293 24.6939 21.32C24.6939 20.2107 24.9392 19.2187 25.4299 18.344C25.9312 17.4587 26.6085 16.7707 27.4619 16.28C28.3259 15.7893 29.2859 15.544 30.3419 15.544C31.3979 15.544 32.3525 15.7893 33.2059 16.28C34.0699 16.7707 34.7472 17.4587 35.2379 18.344C35.7392 19.2187 35.9899 20.2107 35.9899 21.32C35.9899 22.3547 35.7765 23.2933 35.3499 24.136C34.9232 24.968 34.3312 25.64 33.5739 26.152L36.2459 29.064H33.5099ZM26.9979 21.32C26.9979 22.0667 27.1365 22.7227 27.4139 23.288C27.7019 23.8427 28.0965 24.2693 28.5979 24.568C29.0992 24.8667 29.6805 25.016 30.3419 25.016C31.0032 25.016 31.5845 24.8667 32.0859 24.568C32.5872 24.2693 32.9765 23.8427 33.2539 23.288C33.5419 22.7227 33.6859 22.0667 33.6859 21.32C33.6859 20.5733 33.5419 19.9227 33.2539 19.368C32.9765 18.8027 32.5872 18.3707 32.0859 18.072C31.5845 17.7733 31.0032 17.624 30.3419 17.624C29.6805 17.624 29.0992 17.7733 28.5979 18.072C28.0965 18.3707 27.7019 18.8027 27.4139 19.368C27.1365 19.9227 26.9979 20.5733 26.9979 21.32ZM45.5905 21.176C46.2732 21.3147 46.8172 21.64 47.2225 22.152C47.6385 22.6533 47.8465 23.2453 47.8465 23.928C47.8465 24.8773 47.5265 25.6293 46.8865 26.184C46.2572 26.728 45.3398 27 44.1345 27H39.2865V15.704H44.0385C45.1798 15.704 46.0545 15.9547 46.6625 16.456C47.2812 16.9573 47.5905 17.6613 47.5905 18.568C47.5905 19.272 47.4038 19.848 47.0305 20.296C46.6678 20.744 46.1878 21.0373 45.5905 21.176ZM41.5425 20.44H43.5745C44.1398 20.44 44.5665 20.3173 44.8545 20.072C45.1532 19.816 45.3025 19.4533 45.3025 18.984C45.3025 18.5147 45.1585 18.152 44.8705 17.896C44.5825 17.64 44.1398 17.512 43.5425 17.512H41.5425V20.44ZM43.6865 25.16C44.2838 25.16 44.7425 25.032 45.0625 24.776C45.3825 24.5093 45.5425 24.1253 45.5425 23.624C45.5425 23.1227 45.3772 22.7387 45.0465 22.472C44.7265 22.1947 44.2678 22.056 43.6705 22.056H41.5425V25.16H43.6865Z" fill="white"/>
</svg>
