<svg width="190" height="43" viewBox="0 0 190 43" fill="none" xmlns="http://www.w3.org/2000/svg">
<path d="M41 10.5V2H2V41H41V32.5" stroke="white" stroke-width="3"/>
<path d="M22.204 16.204V17.996H19.084V27.5H16.828V17.996H13.724V16.204H22.204ZM30.3259 18.508C31.3499 18.508 32.1659 18.844 32.7739 19.516C33.3819 20.188 33.6859 21.132 33.6859 22.348V27.5H31.4459V22.604C31.4459 21.9 31.2645 21.356 30.9019 20.972C30.5392 20.5773 30.0432 20.38 29.4139 20.38C28.7739 20.38 28.2619 20.588 27.8779 21.004C27.4939 21.42 27.3019 22.0173 27.3019 22.796V27.5H25.0459V15.66H27.3019V20.412C27.5365 19.8147 27.9205 19.3507 28.4539 19.02C28.9979 18.6787 29.6219 18.508 30.3259 18.508ZM45.6069 22.732C45.6069 22.956 45.5802 23.212 45.5269 23.5H39.0309C39.0629 24.2893 39.2762 24.8707 39.6709 25.244C40.0655 25.6173 40.5562 25.804 41.1429 25.804C41.6655 25.804 42.0975 25.676 42.4389 25.42C42.7909 25.164 43.0149 24.8173 43.1109 24.38H45.4949C45.3775 24.9987 45.1269 25.5533 44.7429 26.044C44.3589 26.5347 43.8629 26.9187 43.2549 27.196C42.6575 27.4733 41.9909 27.612 41.2549 27.612C40.3909 27.612 39.6229 27.4307 38.9509 27.068C38.2789 26.6947 37.7562 26.1667 37.3829 25.484C37.0095 24.8013 36.8229 23.996 36.8229 23.068C36.8229 22.14 37.0095 21.3347 37.3829 20.652C37.7562 19.9587 38.2789 19.4307 38.9509 19.068C39.6229 18.7053 40.3909 18.524 41.2549 18.524C42.1295 18.524 42.8922 18.7053 43.5429 19.068C44.2042 19.4307 44.7109 19.932 45.0629 20.572C45.4255 21.2013 45.6069 21.9213 45.6069 22.732ZM43.3349 22.508C43.3669 21.7827 43.1749 21.2333 42.7589 20.86C42.3535 20.4867 41.8522 20.3 41.2549 20.3C40.6469 20.3 40.1349 20.4867 39.7189 20.86C39.3029 21.2333 39.0735 21.7827 39.0309 22.508H43.3349ZM62.3568 29.564L60.5968 27.452C60.1701 27.5587 59.7008 27.612 59.1888 27.612C58.1328 27.612 57.1728 27.3667 56.3088 26.876C55.4554 26.3853 54.7781 25.6973 54.2768 24.812C53.7861 23.9267 53.5408 22.9293 53.5408 21.82C53.5408 20.7107 53.7861 19.7187 54.2768 18.844C54.7781 17.9587 55.4554 17.2707 56.3088 16.78C57.1728 16.2893 58.1328 16.044 59.1888 16.044C60.2448 16.044 61.1994 16.2893 62.0528 16.78C62.9168 17.2707 63.5941 17.9587 64.0848 18.844C64.5861 19.7187 64.8368 20.7107 64.8368 21.82C64.8368 22.8547 64.6234 23.7933 64.1968 24.636C63.7701 25.468 63.1781 26.14 62.4208 26.652L65.0928 29.564H62.3568ZM55.8448 21.82C55.8448 22.5667 55.9834 23.2227 56.2608 23.788C56.5488 24.3427 56.9434 24.7693 57.4448 25.068C57.9461 25.3667 58.5274 25.516 59.1888 25.516C59.8501 25.516 60.4314 25.3667 60.9328 25.068C61.4341 24.7693 61.8234 24.3427 62.1008 23.788C62.3888 23.2227 62.5328 22.5667 62.5328 21.82C62.5328 21.0733 62.3888 20.4227 62.1008 19.868C61.8234 19.3027 61.4341 18.8707 60.9328 18.572C60.4314 18.2733 59.8501 18.124 59.1888 18.124C58.5274 18.124 57.9461 18.2733 57.4448 18.572C56.9434 18.8707 56.5488 19.3027 56.2608 19.868C55.9834 20.4227 55.8448 21.0733 55.8448 21.82ZM76.6134 18.636V27.5H74.3574V25.708C74.1227 26.3053 73.7334 26.7747 73.1894 27.116C72.656 27.4467 72.0374 27.612 71.3334 27.612C70.3094 27.612 69.4934 27.276 68.8854 26.604C68.2774 25.932 67.9734 24.9933 67.9734 23.788V18.636H70.2134V23.532C70.2134 24.236 70.3947 24.7853 70.7574 25.18C71.12 25.564 71.6107 25.756 72.2294 25.756C72.88 25.756 73.3974 25.548 73.7814 25.132C74.1654 24.716 74.3574 24.1187 74.3574 23.34V18.636H76.6134ZM88.6006 22.732C88.6006 22.956 88.574 23.212 88.5206 23.5H82.0246C82.0566 24.2893 82.27 24.8707 82.6646 25.244C83.0593 25.6173 83.55 25.804 84.1366 25.804C84.6593 25.804 85.0913 25.676 85.4326 25.42C85.7846 25.164 86.0086 24.8173 86.1046 24.38H88.4886C88.3713 24.9987 88.1206 25.5533 87.7366 26.044C87.3526 26.5347 86.8566 26.9187 86.2486 27.196C85.6513 27.4733 84.9846 27.612 84.2486 27.612C83.3846 27.612 82.6166 27.4307 81.9446 27.068C81.2726 26.6947 80.75 26.1667 80.3766 25.484C80.0033 24.8013 79.8166 23.996 79.8166 23.068C79.8166 22.14 80.0033 21.3347 80.3766 20.652C80.75 19.9587 81.2726 19.4307 81.9446 19.068C82.6166 18.7053 83.3846 18.524 84.2486 18.524C85.1233 18.524 85.886 18.7053 86.5366 19.068C87.198 19.4307 87.7046 19.932 88.0566 20.572C88.4193 21.2013 88.6006 21.9213 88.6006 22.732ZM86.3286 22.508C86.3606 21.7827 86.1686 21.2333 85.7526 20.86C85.3473 20.4867 84.846 20.3 84.2486 20.3C83.6406 20.3 83.1286 20.4867 82.7126 20.86C82.2966 21.2333 82.0673 21.7827 82.0246 22.508H86.3286ZM94.8581 18.524C95.9355 18.524 96.7995 18.796 97.4501 19.34C98.1008 19.884 98.5061 20.6093 98.6661 21.516H96.5541C96.4688 21.0893 96.2768 20.748 95.9781 20.492C95.6795 20.236 95.2901 20.108 94.8101 20.108C94.4261 20.108 94.1275 20.1987 93.9141 20.38C93.7008 20.5613 93.5941 20.8067 93.5941 21.116C93.5941 21.3613 93.6795 21.5587 93.8501 21.708C94.0208 21.8573 94.2341 21.9747 94.4901 22.06C94.7461 22.1453 95.1141 22.2467 95.5941 22.364C96.2661 22.5133 96.8101 22.6733 97.2261 22.844C97.6528 23.004 98.0155 23.2653 98.3141 23.628C98.6235 23.98 98.7781 24.46 98.7781 25.068C98.7781 25.8253 98.4795 26.4387 97.8821 26.908C97.2955 27.3773 96.5008 27.612 95.4981 27.612C94.3461 27.612 93.4235 27.356 92.7301 26.844C92.0368 26.3213 91.6155 25.58 91.4661 24.62H93.6261C93.6795 25.0573 93.8715 25.404 94.2021 25.66C94.5328 25.9053 94.9648 26.028 95.4981 26.028C95.8821 26.028 96.1755 25.9373 96.3781 25.756C96.5808 25.564 96.6821 25.3187 96.6821 25.02C96.6821 24.764 96.5915 24.556 96.4101 24.396C96.2395 24.236 96.0208 24.1133 95.7541 24.028C95.4981 23.9427 95.1301 23.8413 94.6501 23.724C93.9888 23.5747 93.4501 23.4253 93.0341 23.276C92.6288 23.116 92.2768 22.8653 91.9781 22.524C91.6901 22.1827 91.5461 21.7133 91.5461 21.116C91.5461 20.348 91.8395 19.724 92.4261 19.244C93.0128 18.764 93.8235 18.524 94.8581 18.524ZM106.794 25.564V27.5H105.61C104.618 27.5 103.856 27.26 103.322 26.78C102.8 26.3 102.538 25.5 102.538 24.38V20.54H101.306V18.636H102.538V16.444H104.794V18.636H106.778V20.54H104.794V24.412C104.794 24.8387 104.88 25.1373 105.05 25.308C105.221 25.4787 105.509 25.564 105.914 25.564H106.794ZM109.762 16.092C109.762 15.7293 109.89 15.436 110.146 15.212C110.402 14.9773 110.738 14.86 111.154 14.86C111.57 14.86 111.906 14.9773 112.162 15.212C112.418 15.436 112.546 15.7293 112.546 16.092C112.546 16.444 112.418 16.7373 112.162 16.972C111.906 17.196 111.57 17.308 111.154 17.308C110.738 17.308 110.402 17.196 110.146 16.972C109.89 16.7373 109.762 16.444 109.762 16.092ZM112.274 18.636V27.5H110.018V18.636H112.274ZM120.011 18.524C120.875 18.524 121.648 18.7053 122.331 19.068C123.024 19.4307 123.568 19.9587 123.963 20.652C124.357 21.3347 124.555 22.14 124.555 23.068C124.555 23.996 124.357 24.8013 123.963 25.484C123.568 26.1667 123.024 26.6947 122.331 27.068C121.648 27.4307 120.875 27.612 120.011 27.612C119.147 27.612 118.368 27.4307 117.675 27.068C116.992 26.6947 116.453 26.1667 116.059 25.484C115.664 24.8013 115.467 23.996 115.467 23.068C115.467 22.14 115.664 21.3347 116.059 20.652C116.453 19.9587 116.992 19.4307 117.675 19.068C118.368 18.7053 119.147 18.524 120.011 18.524ZM120.011 20.476C119.381 20.476 118.848 20.7 118.411 21.148C117.973 21.5853 117.755 22.2253 117.755 23.068C117.755 23.9107 117.973 24.556 118.411 25.004C118.848 25.4413 119.381 25.66 120.011 25.66C120.64 25.66 121.173 25.4413 121.611 25.004C122.048 24.556 122.267 23.9107 122.267 23.068C122.267 22.2253 122.048 21.5853 121.611 21.148C121.173 20.7 120.64 20.476 120.011 20.476ZM133.029 18.508C134.053 18.508 134.869 18.844 135.477 19.516C136.085 20.188 136.389 21.132 136.389 22.348V27.5H134.149V22.604C134.149 21.9 133.968 21.356 133.605 20.972C133.242 20.5773 132.746 20.38 132.117 20.38C131.477 20.38 130.965 20.588 130.581 21.004C130.197 21.42 130.005 22.0173 130.005 22.796V27.5H127.749V18.636H130.005V20.412C130.24 19.8147 130.624 19.3507 131.157 19.02C131.701 18.6787 132.325 18.508 133.029 18.508ZM151.362 21.676C152.045 21.8147 152.589 22.14 152.994 22.652C153.41 23.1533 153.618 23.7453 153.618 24.428C153.618 25.3773 153.298 26.1293 152.658 26.684C152.029 27.228 151.112 27.5 149.906 27.5H145.058V16.204H149.81C150.952 16.204 151.826 16.4547 152.434 16.956C153.053 17.4573 153.362 18.1613 153.362 19.068C153.362 19.772 153.176 20.348 152.802 20.796C152.44 21.244 151.96 21.5373 151.362 21.676ZM147.314 20.94H149.346C149.912 20.94 150.338 20.8173 150.626 20.572C150.925 20.316 151.074 19.9533 151.074 19.484C151.074 19.0147 150.93 18.652 150.642 18.396C150.354 18.14 149.912 18.012 149.314 18.012H147.314V20.94ZM149.458 25.66C150.056 25.66 150.514 25.532 150.834 25.276C151.154 25.0093 151.314 24.6253 151.314 24.124C151.314 23.6227 151.149 23.2387 150.818 22.972C150.498 22.6947 150.04 22.556 149.442 22.556H147.314V25.66H149.458ZM160.271 18.524C161.018 18.524 161.658 18.7 162.191 19.052C162.724 19.404 163.103 19.8787 163.327 20.476V18.636H165.567V27.5H163.327V25.644C163.103 26.2413 162.724 26.7213 162.191 27.084C161.658 27.436 161.018 27.612 160.271 27.612C159.524 27.612 158.852 27.4307 158.255 27.068C157.658 26.7053 157.188 26.1827 156.847 25.5C156.516 24.8067 156.351 23.996 156.351 23.068C156.351 22.14 156.516 21.3347 156.847 20.652C157.188 19.9587 157.658 19.4307 158.255 19.068C158.852 18.7053 159.524 18.524 160.271 18.524ZM160.975 20.492C160.271 20.492 159.706 20.7213 159.279 21.18C158.852 21.6387 158.639 22.268 158.639 23.068C158.639 23.868 158.852 24.4973 159.279 24.956C159.706 25.404 160.271 25.628 160.975 25.628C161.658 25.628 162.218 25.3987 162.655 24.94C163.103 24.4707 163.327 23.8467 163.327 23.068C163.327 22.2787 163.103 21.6547 162.655 21.196C162.218 20.7267 161.658 20.492 160.975 20.492ZM174.492 18.508C175.516 18.508 176.332 18.844 176.94 19.516C177.548 20.188 177.852 21.132 177.852 22.348V27.5H175.612V22.604C175.612 21.9 175.43 21.356 175.068 20.972C174.705 20.5773 174.209 20.38 173.58 20.38C172.94 20.38 172.428 20.588 172.044 21.004C171.66 21.42 171.468 22.0173 171.468 22.796V27.5H169.212V18.636H171.468V20.412C171.702 19.8147 172.086 19.3507 172.62 19.02C173.164 18.6787 173.788 18.508 174.492 18.508ZM186.621 27.5L183.693 23.628V27.5H181.437V15.66H183.693V22.316L186.605 18.636H189.277L185.549 23.052L189.373 27.5H186.621Z" fill="white"/>
</svg>
