<svg width="566" height="417" viewBox="0 0 566 417" fill="none" xmlns="http://www.w3.org/2000/svg">
<path d="M24.2101 414.7C-21.6799 331.59 4.51009 248 57.3901 200.59C111.15 152.38 50.5301 47 157.52 6.40999C212.87 -14.59 261.38 28.85 315.67 29.41C402.52 30.28 423.47 -1.00001 472.83 22.41C505.83 35.88 530 77.21 527.54 122.41C526.26 145.76 515.01 173.41 526.66 191.14C575.86 266.01 570.79 331.49 551.51 413.7L24.2101 414.7Z" fill="#ECF1FB"/>
<path d="M140.31 367.01H70.2701C68.9391 367.01 67.8601 368.089 67.8601 369.42V370.53C67.8601 371.861 68.9391 372.94 70.2701 372.94H140.31C141.641 372.94 142.72 371.861 142.72 370.53V369.42C142.72 368.089 141.641 367.01 140.31 367.01Z" fill="#39393B"/>
<path d="M139.58 301.31H71.1501C70.0124 301.31 69.0901 302.232 69.0901 303.37V311.78C69.0901 312.918 70.0124 313.84 71.1501 313.84H139.58C140.718 313.84 141.64 312.918 141.64 311.78V303.37C141.64 302.232 140.718 301.31 139.58 301.31Z" fill="#585859"/>
<path d="M95.3 313.84L93.22 320.56L64.21 414.05H58.54L76.94 322.46L78.67 313.84H95.3Z" fill="#39393B"/>
<path d="M152.36 414.05H146.69L116.83 317.79L115.6 313.84H132.23L132.65 315.93L152.36 414.05Z" fill="#39393B"/>
<path d="M140.31 354.12H70.2701C68.9391 354.12 67.8601 355.199 67.8601 356.53V357.64C67.8601 358.971 68.9391 360.05 70.2701 360.05H140.31C141.641 360.05 142.72 358.971 142.72 357.64V356.53C142.72 355.199 141.641 354.12 140.31 354.12Z" fill="#585859"/>
<path d="M372.21 84.4999C387.188 84.4999 399.33 72.5101 399.33 57.7199C399.33 42.9298 387.188 30.9399 372.21 30.9399C357.232 30.9399 345.09 42.9298 345.09 57.7199C345.09 72.5101 357.232 84.4999 372.21 84.4999Z" fill="#3C66D8"/>
<path d="M372.21 79.4899C384.382 79.4899 394.25 69.7432 394.25 57.72C394.25 45.6967 384.382 35.95 372.21 35.95C360.038 35.95 350.17 45.6967 350.17 57.72C350.17 69.7432 360.038 79.4899 372.21 79.4899Z" fill="white"/>
<path d="M372.21 59.9999C372.123 59.9992 372.038 59.9791 371.96 59.941C371.882 59.903 371.814 59.8479 371.76 59.7799L361 45.3899C360.957 45.333 360.926 45.268 360.908 45.1989C360.89 45.1297 360.886 45.0577 360.896 44.987C360.907 44.9163 360.931 44.8484 360.967 44.7871C361.004 44.7258 361.053 44.6724 361.11 44.6299C361.229 44.5444 361.377 44.508 361.522 44.5285C361.667 44.549 361.799 44.6247 361.89 44.7399L372.44 58.7399L384.44 53.54C384.575 53.4848 384.725 53.483 384.861 53.5351C384.996 53.5871 385.107 53.689 385.17 53.8199C385.227 53.9539 385.228 54.1049 385.174 54.2398C385.119 54.3748 385.014 54.4827 384.88 54.54L372.49 59.91C372.406 59.9631 372.31 59.9941 372.21 59.9999Z" fill="#39393B"/>
<path d="M424.7 280.13C418.33 266.4 434.35 249.08 426.7 236.01C421.95 227.9 409.48 224.94 408.09 215.64C407.67 212.87 408.41 210.07 408.8 207.3C409.568 201.868 408.988 196.33 407.11 191.175C405.232 186.02 402.115 181.406 398.033 177.74C393.951 174.074 389.03 171.469 383.704 170.154C378.377 168.839 372.809 168.855 367.49 170.2H367.41C357.2 174.03 348.63 183.32 346.1 193.93C344.883 199.278 344.975 204.84 346.368 210.145C347.761 215.449 350.413 220.34 354.1 224.4C356.01 226.4 358.21 228.33 359.45 230.84C363.61 239.27 355.05 248.84 355.78 258.19C357 273.31 380 278.39 382.6 293.31C383.29 297.24 382.37 301.26 382.29 305.26C381.94 322.69 400.88 337.65 417.76 333.26L418.62 332.99C434.98 326.99 442 303.86 431.77 289.74C429.43 286.53 426.38 283.75 424.7 280.13Z" fill="#1F5698"/>
<path d="M368.5 171.08L434.76 374.88C435.015 375.665 434.947 376.519 434.572 377.254C434.197 377.989 433.545 378.545 432.76 378.8C431.975 379.054 431.121 378.987 430.386 378.612C429.651 378.237 429.095 377.585 428.84 376.8C428.84 376.8 428.84 376.75 428.84 376.74L367 171.55C366.938 171.352 366.956 171.138 367.052 170.954C367.148 170.77 367.312 170.632 367.51 170.57C367.708 170.508 367.922 170.526 368.106 170.622C368.289 170.718 368.428 170.882 368.49 171.08H368.5Z" fill="#0B63DA"/>
<path d="M374.15 265.82C374.93 265.73 375.71 265.66 376.5 265.62C377.29 265.58 378.08 265.57 378.88 265.62C380.48 265.679 382.071 265.894 383.63 266.26C385.205 266.642 386.736 267.185 388.2 267.88C389.662 268.582 391.06 269.409 392.38 270.35C395.005 272.255 397.389 274.471 399.48 276.95C401.562 279.401 403.467 281.998 405.18 284.72C405.352 284.954 405.474 285.221 405.538 285.504C405.602 285.787 405.608 286.08 405.554 286.366C405.501 286.651 405.389 286.922 405.226 287.163C405.064 287.403 404.853 287.607 404.608 287.763C404.363 287.919 404.089 288.023 403.802 288.068C403.516 288.114 403.223 288.1 402.942 288.027C402.66 287.955 402.397 287.825 402.168 287.647C401.939 287.468 401.749 287.245 401.61 286.99L401.51 286.81C400.15 284.095 398.606 281.475 396.89 278.97C395.188 276.481 393.19 274.208 390.94 272.2C389.812 271.208 388.601 270.315 387.32 269.53C386.031 268.748 384.664 268.105 383.24 267.61C381.8 267.106 380.312 266.75 378.8 266.55C378.04 266.45 377.27 266.38 376.5 266.34C375.73 266.3 374.95 266.29 374.18 266.34C374.15 266.341 374.121 266.337 374.093 266.326C374.065 266.316 374.04 266.3 374.018 266.279C373.997 266.259 373.979 266.234 373.968 266.207C373.956 266.179 373.95 266.15 373.95 266.12C373.941 266.087 373.94 266.053 373.945 266.019C373.951 265.985 373.963 265.953 373.982 265.925C374.001 265.896 374.026 265.872 374.055 265.854C374.084 265.836 374.116 265.825 374.15 265.82Z" fill="#0B63DA"/>
<path d="M410.62 234.54C409.98 234.96 409.34 235.4 408.73 235.87C408.12 236.34 407.53 236.87 406.96 237.34C405.843 238.368 404.837 239.511 403.96 240.75C402.235 243.243 401.003 246.044 400.33 249C399.657 251.952 399.322 254.972 399.33 258C399.327 261.05 399.524 264.096 399.92 267.12C399.968 267.531 399.852 267.944 399.598 268.269C399.343 268.595 398.97 268.807 398.56 268.86C398.358 268.885 398.152 268.87 397.956 268.816C397.76 268.762 397.576 268.669 397.415 268.544C397.254 268.418 397.12 268.263 397.02 268.085C396.919 267.908 396.855 267.712 396.83 267.51C396.825 267.473 396.825 267.436 396.83 267.4C396.643 264.232 396.667 261.055 396.9 257.89C397.126 254.703 397.717 251.552 398.66 248.5C399.595 245.431 401.109 242.57 403.12 240.07C404.125 238.84 405.262 237.723 406.51 236.74C407.13 236.247 407.77 235.787 408.43 235.36C409.09 234.93 409.76 234.53 410.43 234.15C410.483 234.121 410.545 234.115 410.603 234.131C410.661 234.148 410.71 234.187 410.74 234.24C410.753 234.267 410.76 234.297 410.761 234.328C410.762 234.358 410.757 234.388 410.746 234.416C410.734 234.444 410.717 234.47 410.696 234.491C410.674 234.513 410.648 234.529 410.62 234.54Z" fill="#0B63DA"/>
<path d="M457.4 280.05C462.68 269.21 450.18 255.19 456.46 244.89C460.36 238.5 470.34 236.33 471.58 228.95C471.96 226.74 471.41 224.51 471.14 222.29C470.61 217.953 471.155 213.552 472.728 209.475C474.3 205.399 476.851 201.772 480.157 198.914C483.462 196.056 487.42 194.056 491.681 193.089C495.942 192.122 500.375 192.219 504.59 193.37C508.684 195.028 512.324 197.636 515.212 200.978C518.1 204.319 520.152 208.299 521.2 212.59C522.09 216.866 521.935 221.293 520.748 225.496C519.56 229.698 517.376 233.552 514.38 236.73C512.83 238.34 511.05 239.79 510.03 241.78C506.59 248.43 513.26 256.16 512.54 263.61C511.38 275.61 492.96 279.32 490.67 291.16C490.06 294.28 490.74 297.49 490.74 300.67C490.74 314.56 475.46 326.19 462.08 322.46L461.4 322.23C448.46 317.18 443.22 298.69 451.57 287.6C453.54 285.08 456 282.91 457.4 280.05Z" fill="#1F5698"/>
<path d="M503.77 194.05L448 355.35C447.785 355.972 447.826 356.654 448.114 357.245C448.402 357.837 448.913 358.29 449.535 358.505C450.157 358.72 450.839 358.679 451.431 358.391C452.022 358.103 452.475 357.592 452.69 356.97V356.92L505 194.45C505.038 194.297 505.016 194.135 504.94 193.997C504.864 193.859 504.738 193.754 504.589 193.704C504.439 193.653 504.276 193.661 504.132 193.725C503.988 193.789 503.873 193.905 503.81 194.05H503.77Z" fill="#0B63DA"/>
<path d="M497.87 269.41C497.25 269.33 496.63 269.26 496 269.22C495.37 269.18 494.74 269.16 494.11 269.16C492.832 269.177 491.558 269.325 490.31 269.6C489.051 269.878 487.824 270.287 486.65 270.82C485.476 271.359 484.349 271.994 483.28 272.72C481.166 274.199 479.239 275.928 477.54 277.87C475.849 279.794 474.292 281.832 472.88 283.97C472.743 284.154 472.645 284.364 472.592 284.587C472.539 284.81 472.532 285.042 472.571 285.268C472.61 285.494 472.695 285.71 472.82 285.902C472.946 286.094 473.109 286.259 473.3 286.386C473.491 286.513 473.705 286.6 473.931 286.641C474.157 286.682 474.388 286.677 474.612 286.626C474.836 286.575 475.047 286.479 475.232 286.344C475.417 286.209 475.573 286.037 475.69 285.84C475.721 285.792 475.747 285.742 475.77 285.69C476.891 283.544 478.161 281.479 479.57 279.51C480.96 277.555 482.582 275.775 484.4 274.21C485.315 273.436 486.295 272.744 487.33 272.14C488.367 271.533 489.467 271.04 490.61 270.67C491.763 270.288 492.953 270.026 494.16 269.89C494.76 269.82 495.37 269.78 495.99 269.76C496.61 269.74 497.22 269.76 497.84 269.76C497.879 269.75 497.914 269.728 497.939 269.696C497.964 269.665 497.978 269.625 497.978 269.585C497.978 269.544 497.964 269.505 497.939 269.474C497.914 269.442 497.879 269.419 497.84 269.41H497.87Z" fill="#0B63DA"/>
<path d="M514.85 218.54C514.23 218.46 513.61 218.4 512.98 218.36C512.35 218.32 511.72 218.36 511.09 218.36C509.82 218.39 508.557 218.551 507.32 218.84C506.071 219.133 504.855 219.552 503.69 220.09C502.53 220.637 501.419 221.283 500.37 222.02C498.288 223.513 496.391 225.249 494.72 227.19C493.064 229.123 491.544 231.167 490.17 233.31C490.062 233.456 489.985 233.623 489.943 233.8C489.902 233.977 489.898 234.161 489.93 234.34C489.963 234.519 490.032 234.689 490.133 234.84C490.234 234.991 490.364 235.12 490.517 235.219C490.67 235.318 490.841 235.384 491.021 235.414C491.2 235.444 491.384 235.436 491.56 235.392C491.737 235.348 491.902 235.269 492.047 235.158C492.191 235.048 492.311 234.909 492.4 234.75L492.45 234.67C493.602 232.529 494.902 230.471 496.34 228.51C497.769 226.558 499.428 224.786 501.28 223.23C502.22 222.478 503.224 221.809 504.28 221.23C505.328 220.632 506.438 220.149 507.59 219.79C508.751 219.419 509.947 219.171 511.16 219.05C511.77 218.99 512.38 218.95 513 218.94C513.62 218.93 514.23 218.94 514.85 218.94C514.874 218.941 514.897 218.938 514.92 218.93C514.942 218.922 514.963 218.91 514.98 218.895C514.998 218.879 515.012 218.86 515.022 218.838C515.033 218.817 515.039 218.794 515.04 218.77C515.048 218.742 515.05 218.712 515.044 218.683C515.038 218.654 515.025 218.627 515.006 218.605C514.987 218.582 514.963 218.564 514.936 218.553C514.909 218.542 514.879 218.537 514.85 218.54Z" fill="#0B63DA"/>
<path d="M469.29 244C469.8 244.35 470.29 244.71 470.78 245.08C471.27 245.45 471.72 245.87 472.16 246.28C473.039 247.117 473.827 248.046 474.51 249.05C475.849 251.055 476.789 253.299 477.28 255.66C477.78 258.026 478.012 260.442 477.97 262.86C477.926 265.287 477.723 267.709 477.36 270.11C477.337 270.271 477.346 270.436 477.387 270.594C477.427 270.752 477.499 270.9 477.597 271.031C477.795 271.294 478.089 271.469 478.415 271.515C478.741 271.561 479.073 271.476 479.336 271.278C479.6 271.081 479.774 270.786 479.82 270.46C479.82 270.46 479.82 270.41 479.82 270.38C480.012 267.858 480.039 265.326 479.9 262.8C479.769 260.26 479.347 257.743 478.64 255.3C477.938 252.845 476.777 250.544 475.22 248.52C474.432 247.528 473.54 246.623 472.56 245.82C472.08 245.42 471.56 245.04 471.06 244.69C470.56 244.34 470.01 244.01 469.47 243.69C469.431 243.673 469.387 243.671 469.346 243.684C469.306 243.697 469.271 243.723 469.248 243.759C469.225 243.795 469.216 243.838 469.222 243.881C469.228 243.923 469.248 243.962 469.28 243.99L469.29 244Z" fill="#0B63DA"/>
<path d="M464 256.93C462 241.93 482.49 230.18 479.1 215.43C477 206.26 465.98 199.71 467.43 190.43C467.86 187.66 469.43 185.22 470.61 182.69C472.967 177.734 474.068 172.275 473.815 166.793C473.563 161.311 471.966 155.976 469.165 151.257C466.363 146.538 462.444 142.582 457.752 139.736C453.059 136.891 447.739 135.243 442.26 134.94H442.18C431.29 135.55 420.34 141.86 414.76 151.22C412.001 155.96 410.426 161.296 410.17 166.775C409.914 172.254 410.985 177.713 413.29 182.69C414.49 185.22 416.03 187.69 416.47 190.43C417.92 199.72 406.9 206.27 404.79 215.43C401.41 230.18 421.87 241.92 419.89 256.93C419.37 260.93 417.29 264.45 416.02 268.23C410.48 284.76 424.08 304.7 441.49 305.57H442.4C459.81 304.7 473.4 284.76 467.87 268.23C466.61 264.45 464.54 260.89 464 256.93Z" fill="#3582EB"/>
<path d="M443 136.07L445.33 350.35C445.335 350.758 445.259 351.164 445.107 351.543C444.955 351.922 444.73 352.267 444.444 352.559C444.158 352.851 443.818 353.084 443.443 353.245C443.067 353.405 442.664 353.49 442.255 353.495C441.847 353.5 441.441 353.424 441.062 353.272C440.683 353.12 440.338 352.894 440.046 352.609C439.754 352.323 439.521 351.983 439.36 351.608C439.2 351.232 439.115 350.828 439.11 350.42V350.35L441.44 136.07C441.44 135.967 441.461 135.865 441.501 135.771C441.541 135.676 441.599 135.59 441.673 135.518C441.746 135.447 441.834 135.39 441.929 135.353C442.025 135.315 442.127 135.297 442.23 135.3C442.434 135.303 442.628 135.385 442.772 135.528C442.916 135.672 442.998 135.867 443 136.07Z" fill="#0B63DA"/>
<path d="M420.05 228.17C420.82 228.32 421.59 228.48 422.35 228.68C423.11 228.88 423.88 229.11 424.63 229.36C426.139 229.883 427.592 230.553 428.97 231.36C430.359 232.195 431.659 233.17 432.85 234.27C434.037 235.379 435.128 236.586 436.11 237.88C438.039 240.481 439.647 243.304 440.9 246.29C442.154 249.253 443.197 252.3 444.02 255.41C444.167 255.951 444.094 256.528 443.815 257.015C443.537 257.502 443.076 257.858 442.535 258.005C441.994 258.152 441.417 258.078 440.93 257.8C440.443 257.521 440.087 257.061 439.94 256.52C439.935 256.45 439.935 256.38 439.94 256.31C439.468 253.311 438.779 250.35 437.88 247.45C437.003 244.562 435.777 241.792 434.23 239.2C433.452 237.918 432.561 236.706 431.57 235.58C430.572 234.448 429.459 233.423 428.25 232.52C427.025 231.61 425.712 230.826 424.33 230.18C423.64 229.86 422.93 229.56 422.2 229.3C421.47 229.04 420.74 228.79 419.99 228.57C419.962 228.563 419.935 228.55 419.912 228.533C419.889 228.515 419.869 228.493 419.854 228.468C419.824 228.417 419.816 228.357 419.83 228.3C419.845 228.243 419.881 228.194 419.932 228.164C419.983 228.134 420.043 228.125 420.1 228.14L420.05 228.17Z" fill="#0B63DA"/>
<path d="M420.05 160.83C420.82 160.98 421.58 161.16 422.34 161.36C423.1 161.56 423.86 161.81 424.61 162.07C427.629 163.166 430.392 164.868 432.73 167.07C433.9 168.178 434.968 169.39 435.92 170.69C437.813 173.289 439.381 176.11 440.59 179.09C441.801 182.046 442.803 185.084 443.59 188.18C443.655 188.395 443.676 188.621 443.652 188.845C443.627 189.068 443.558 189.285 443.448 189.481C443.338 189.677 443.189 189.849 443.011 189.986C442.833 190.123 442.629 190.223 442.412 190.28C442.194 190.336 441.968 190.348 441.745 190.315C441.523 190.282 441.309 190.204 441.118 190.087C440.926 189.969 440.76 189.814 440.63 189.631C440.5 189.447 440.408 189.24 440.36 189.02V188.9C439.842 185.893 439.113 182.926 438.18 180.02C437.251 177.13 435.983 174.361 434.4 171.77C433.594 170.488 432.681 169.277 431.67 168.15C430.654 167.032 429.521 166.027 428.29 165.15C427.043 164.243 425.702 163.472 424.29 162.85C423.59 162.54 422.88 162.25 422.15 161.99C421.42 161.73 420.68 161.5 419.93 161.29C419.902 161.283 419.875 161.27 419.852 161.253C419.829 161.235 419.809 161.213 419.794 161.188C419.779 161.163 419.77 161.135 419.765 161.107C419.761 161.078 419.763 161.048 419.77 161.02C419.777 160.992 419.79 160.965 419.808 160.942C419.825 160.919 419.847 160.899 419.872 160.884C419.897 160.869 419.925 160.86 419.954 160.855C419.982 160.851 420.012 160.853 420.04 160.86L420.05 160.83Z" fill="#0B63DA"/>
<path d="M464.2 209.21C463.46 209.42 462.72 209.66 462 209.92C461.28 210.18 460.57 210.47 459.87 210.79C458.495 211.44 457.191 212.231 455.98 213.15C453.589 215.011 451.576 217.313 450.05 219.93C448.514 222.544 447.282 225.325 446.38 228.22C445.462 231.129 444.737 234.095 444.21 237.1C444.173 237.302 444.097 237.494 443.986 237.666C443.875 237.838 443.731 237.987 443.562 238.103C443.394 238.22 443.204 238.302 443.004 238.345C442.803 238.388 442.597 238.392 442.395 238.355C442.193 238.318 442.001 238.242 441.829 238.131C441.657 238.02 441.508 237.876 441.392 237.707C441.275 237.539 441.193 237.349 441.15 237.149C441.107 236.948 441.103 236.742 441.14 236.54V236.43C441.907 233.352 442.879 230.328 444.05 227.38C445.217 224.408 446.72 221.58 448.53 218.95C450.341 216.298 452.643 214.018 455.31 212.23C456.639 211.361 458.057 210.637 459.54 210.07C460.28 209.79 461.03 209.54 461.78 209.32C462.53 209.1 463.3 208.93 464.07 208.77C464.128 208.761 464.188 208.775 464.236 208.808C464.284 208.842 464.318 208.892 464.33 208.95C464.339 208.976 464.343 209.003 464.342 209.03C464.34 209.057 464.333 209.084 464.321 209.108C464.309 209.132 464.292 209.154 464.271 209.171C464.25 209.189 464.226 209.202 464.2 209.21Z" fill="#0B63DA"/>
<path d="M462.45 341.21H411.51C410.554 341.227 409.612 341.446 408.746 341.853C407.881 342.259 407.111 342.845 406.488 343.57C405.864 344.295 405.402 345.144 405.13 346.061C404.858 346.978 404.783 347.942 404.91 348.89L411.77 407.73C411.948 409.365 412.719 410.878 413.937 411.984C415.155 413.089 416.735 413.71 418.38 413.73H455.59C457.235 413.71 458.815 413.089 460.033 411.984C461.251 410.878 462.022 409.365 462.2 407.73L469.06 348.89C469.186 347.942 469.109 346.977 468.836 346.06C468.563 345.143 468.099 344.295 467.475 343.57C466.851 342.844 466.081 342.259 465.215 341.853C464.349 341.446 463.407 341.227 462.45 341.21Z" fill="#F07F2F"/>
<path d="M276.77 169.83L291.4 223.32L286.19 217.32C288.287 218.405 290.52 219.202 292.83 219.69C295.464 220.247 298.14 220.582 300.83 220.69C303.65 220.83 306.59 220.81 309.6 220.69C312.61 220.57 315.68 220.34 318.8 220.07C320.96 219.885 323.107 220.545 324.789 221.913C326.47 223.28 327.555 225.247 327.815 227.399C328.074 229.551 327.488 231.719 326.179 233.447C324.87 235.175 322.942 236.327 320.8 236.66C317.58 237.17 314.31 237.66 310.96 238.05C307.61 238.44 304.16 238.73 300.6 238.81C296.9 238.909 293.197 238.705 289.53 238.2C285.543 237.645 281.647 236.569 277.94 235C276.772 234.49 275.723 233.74 274.862 232.8C274.001 231.859 273.346 230.749 272.94 229.54L272.76 228.99L255.21 176.38C254.351 173.565 254.625 170.525 255.974 167.909C257.323 165.293 259.64 163.308 262.432 162.375C265.224 161.443 268.269 161.638 270.92 162.918C273.57 164.199 275.615 166.463 276.62 169.23C276.65 169.42 276.72 169.64 276.77 169.83Z" fill="#EAA97A"/>
<path d="M282.41 363.76C282.185 363.762 281.962 363.725 281.75 363.65L205.11 336C204.867 335.918 204.642 335.788 204.45 335.618C204.257 335.448 204.1 335.241 203.989 335.01C203.877 334.779 203.813 334.527 203.799 334.271C203.786 334.014 203.824 333.758 203.911 333.516C203.999 333.274 204.133 333.053 204.307 332.864C204.481 332.675 204.691 332.522 204.925 332.416C205.159 332.309 205.411 332.25 205.668 332.242C205.925 332.234 206.18 332.278 206.42 332.37L283.06 360C283.49 360.152 283.853 360.451 284.083 360.844C284.314 361.238 284.397 361.7 284.32 362.15C284.242 362.599 284.007 363.006 283.658 363.299C283.308 363.592 282.866 363.752 282.41 363.75V363.76Z" fill="#222F55"/>
<path d="M202.58 363.76C202.123 363.764 201.68 363.606 201.328 363.314C200.977 363.022 200.741 362.615 200.661 362.165C200.582 361.714 200.665 361.251 200.896 360.856C201.126 360.462 201.489 360.162 201.92 360.01L279.47 331.92C279.713 331.814 279.975 331.758 280.241 331.757C280.506 331.756 280.769 331.81 281.012 331.914C281.256 332.019 281.476 332.173 281.658 332.365C281.84 332.558 281.981 332.787 282.071 333.036C282.162 333.285 282.2 333.551 282.184 333.815C282.168 334.08 282.097 334.339 281.977 334.575C281.857 334.812 281.69 335.021 281.486 335.191C281.282 335.36 281.045 335.486 280.79 335.56L203.24 363.65C203.028 363.725 202.805 363.762 202.58 363.76Z" fill="#222F55"/>
<path d="M289.22 413.15C288.42 413.147 287.648 412.855 287.047 412.328C286.446 411.8 286.056 411.073 285.95 410.28L272.1 306.91H214.17L200.55 410.27C200.507 410.712 200.376 411.141 200.164 411.532C199.952 411.922 199.664 412.266 199.316 412.542C198.969 412.819 198.569 413.023 198.141 413.142C197.713 413.26 197.265 413.292 196.825 413.234C196.385 413.176 195.96 413.031 195.577 412.805C195.195 412.58 194.861 412.28 194.596 411.923C194.332 411.567 194.142 411.16 194.038 410.728C193.933 410.297 193.917 409.848 193.99 409.41L207.99 303.17C208.094 302.374 208.485 301.643 209.088 301.113C209.691 300.583 210.467 300.291 211.27 300.29H275C275.802 300.29 276.576 300.581 277.179 301.109C277.782 301.637 278.173 302.366 278.28 303.16L292.51 409.4C292.624 410.269 292.389 411.149 291.857 411.846C291.325 412.543 290.539 413.001 289.67 413.12L289.22 413.15Z" fill="#1A264E"/>
<path d="M256.54 303.6H215.15C202 303.6 188 296.43 186 283.47C183.461 267.1 182.587 250.516 183.39 233.97C183.804 225.365 186.058 216.948 189.999 209.287C193.941 201.627 199.479 194.9 206.24 189.56C206.24 189.56 214.51 225.56 204.12 275.31C208.08 294.21 256.54 303.6 256.54 303.6Z" fill="#1A264E"/>
<path d="M247.92 92.2901C247.92 92.2901 242.99 80.4401 229.92 82.6701C220.82 84.2301 216.92 95.5701 217.47 113.08C218.25 138.57 209.63 153.93 209.63 153.93L221.08 156.53C221.08 156.53 250.26 112.84 247.92 92.2901Z" fill="#39393B"/>
<path d="M352.29 368.85H333.81C333.81 368.85 329.53 348.34 328.09 336.85C326.65 325.36 325.91 298.07 325.91 298.07C325.91 298.07 311.18 302.85 280.34 301.07C212.01 297.07 237.92 246.87 237.92 246.87C240.23 250.06 254.37 247.87 264.04 249.38C293.7 252.22 319.43 263.87 334.87 270.53C338.294 271.983 341.61 273.681 344.79 275.61C348.51 277.91 350.79 284.87 352.25 294.03C356.46 321.51 352.29 368.85 352.29 368.85Z" fill="#39393B"/>
<path d="M351.78 392.54H338.74L336.22 377.23L334.85 368.85H351.06L351.31 377.23L351.78 392.54Z" fill="#EA9B7A"/>
<path d="M351.78 392.54H338.74L336.86 381.14L336.22 377.23H351.31L351.44 381.29L351.78 392.54Z" fill="#FAAF3A"/>
<path d="M351.44 381.29L336.86 381.14L336.22 377.23H351.31L351.44 381.29Z" fill="#C77E2E"/>
<path d="M384 413.15H334.63C334.226 412.292 334.005 411.359 333.98 410.41C333.67 406.23 334.98 399.57 335.66 395.41C335.74 394.92 335.8 394.46 335.86 394.05C335.941 393.48 335.987 392.906 336 392.33C336 388.9 339 389.49 339 389.49C344 394.39 349.65 387.04 352.95 389.49L353.39 389.83C353.66 390.04 354.08 390.38 354.67 390.83C355.51 391.54 356.67 392.56 358.29 394C362.21 397.52 368.87 399.85 374.54 402.22C375.27 402.52 375.94 402.82 376.54 403.12C377.01 403.35 377.46 403.58 377.88 403.81C382.52 406.31 383.99 408.71 384.33 410.45C384.553 411.36 384.436 412.32 384 413.15Z" fill="#39393B"/>
<path d="M377.94 403.77C376.67 404.77 373.84 406.77 371.57 406.77H371.28C369.68 406.64 363.79 403.77 359.01 401.12C356.27 399.61 353.76 398.12 351.96 396.94C349.01 394.99 348.49 394.25 348.38 393.73C347.95 391.79 351.17 390.43 353.43 389.73C353.7 389.94 354.12 390.28 354.71 390.73C351.9 391.5 349.6 392.73 349.71 393.38C349.98 393.96 352.9 396.18 359.89 400.01C365.22 402.92 370.27 405.28 371.39 405.37C372.91 405.5 375.14 404.11 376.6 403.02C377.07 403.31 377.52 403.54 377.94 403.77Z" fill="#181819"/>
<path d="M384 413.15H334.63C334.226 412.291 334.005 411.358 333.98 410.41H384.39C384.603 411.34 384.464 412.316 384 413.15Z" fill="#181819"/>
<path d="M339.67 413.15H338.2C339.142 412.072 339.861 410.817 340.316 409.46C340.771 408.102 340.952 406.668 340.85 405.24C340.714 403.326 340.182 401.46 339.289 399.761C338.396 398.063 337.16 396.567 335.66 395.37C335.74 394.88 335.8 394.42 335.86 394.01C337.636 395.314 339.106 396.99 340.167 398.921C341.227 400.852 341.853 402.992 342 405.19C342.194 408.036 341.368 410.858 339.67 413.15Z" fill="#181819"/>
<path d="M357.49 396.87C357.294 396.863 357.107 396.787 356.963 396.654C356.819 396.521 356.727 396.341 356.704 396.147C356.681 395.952 356.728 395.756 356.838 395.593C356.947 395.43 357.111 395.312 357.3 395.26L360.38 394.5C360.484 394.474 360.592 394.469 360.697 394.486C360.803 394.502 360.904 394.538 360.996 394.594C361.087 394.649 361.167 394.722 361.23 394.808C361.294 394.894 361.34 394.991 361.365 395.095C361.391 395.199 361.396 395.307 361.38 395.412C361.364 395.518 361.327 395.619 361.272 395.711C361.216 395.802 361.144 395.882 361.058 395.945C360.972 396.009 360.874 396.054 360.77 396.08L357.69 396.84C357.625 396.86 357.558 396.87 357.49 396.87Z" fill="white"/>
<path d="M354.43 394.3C354.229 394.306 354.033 394.236 353.88 394.105C353.727 393.974 353.629 393.791 353.604 393.591C353.579 393.391 353.629 393.189 353.745 393.024C353.861 392.86 354.034 392.744 354.23 392.7L357.32 391.93C357.53 391.878 357.751 391.912 357.936 392.023C358.121 392.135 358.253 392.315 358.305 392.525C358.357 392.734 358.323 392.956 358.212 393.141C358.1 393.325 357.92 393.458 357.71 393.51L354.63 394.28L354.43 394.3Z" fill="white"/>
<path d="M360.58 398.66C360.398 398.661 360.221 398.6 360.078 398.487C359.934 398.375 359.833 398.217 359.79 398.04C359.76 397.936 359.752 397.826 359.766 397.718C359.779 397.611 359.815 397.507 359.87 397.413C359.925 397.32 359.999 397.238 360.087 397.174C360.174 397.11 360.274 397.064 360.38 397.04L363.46 396.27C363.564 396.244 363.672 396.24 363.777 396.256C363.883 396.272 363.984 396.308 364.076 396.364C364.167 396.419 364.247 396.492 364.31 396.578C364.374 396.664 364.42 396.761 364.445 396.865C364.471 396.969 364.476 397.077 364.46 397.182C364.444 397.288 364.407 397.389 364.352 397.481C364.296 397.572 364.224 397.652 364.138 397.715C364.052 397.779 363.954 397.824 363.85 397.85L360.77 398.61C360.71 398.637 360.646 398.653 360.58 398.66Z" fill="white"/>
<path d="M363.66 400.38C363.459 400.386 363.263 400.316 363.11 400.185C362.957 400.054 362.859 399.871 362.834 399.671C362.809 399.471 362.859 399.269 362.975 399.104C363.091 398.94 363.264 398.824 363.46 398.78L366.55 398.01C366.76 397.958 366.981 397.992 367.166 398.104C367.351 398.215 367.483 398.396 367.535 398.605C367.587 398.815 367.553 399.036 367.442 399.221C367.33 399.405 367.15 399.538 366.94 399.59L363.85 400.36L363.66 400.38Z" fill="white"/>
<path d="M367 402C366.819 402.003 366.642 401.944 366.498 401.833C366.355 401.722 366.253 401.566 366.21 401.39C366.183 401.285 366.177 401.177 366.192 401.07C366.207 400.963 366.243 400.86 366.298 400.767C366.352 400.675 366.425 400.593 366.511 400.529C366.597 400.464 366.696 400.417 366.8 400.39L369.89 399.63C370.094 399.591 370.305 399.631 370.479 399.743C370.654 399.854 370.779 400.029 370.829 400.23C370.879 400.431 370.85 400.644 370.748 400.824C370.646 401.005 370.478 401.139 370.28 401.2L367.2 401.97C367.135 401.989 367.068 401.999 367 402Z" fill="white"/>
<path d="M370.66 403.33C370.48 403.331 370.306 403.271 370.164 403.16C370.023 403.049 369.923 402.894 369.88 402.72C369.852 402.616 369.844 402.506 369.859 402.399C369.873 402.292 369.909 402.189 369.964 402.095C370.019 402.002 370.092 401.921 370.179 401.856C370.266 401.792 370.365 401.746 370.47 401.72L373.55 400.96C373.655 400.928 373.766 400.917 373.875 400.929C373.985 400.941 374.09 400.976 374.186 401.03C374.282 401.084 374.365 401.157 374.432 401.245C374.498 401.332 374.546 401.433 374.573 401.539C374.599 401.646 374.604 401.757 374.586 401.866C374.568 401.974 374.529 402.078 374.469 402.171C374.41 402.263 374.333 402.343 374.242 402.405C374.151 402.467 374.048 402.509 373.94 402.53L370.86 403.3C370.795 403.32 370.728 403.33 370.66 403.33Z" fill="white"/>
<path d="M203.7 230.92C203.7 230.92 203.12 234.92 208.46 236.03L264.14 237.88C265.268 237.24 266.169 236.267 266.721 235.094C267.272 233.921 267.447 232.606 267.22 231.33C267.22 231.33 243.71 218.13 203.7 230.92Z" fill="#084FC7"/>
<path d="M264.9 249.34C236 265.23 204.44 252.43 204.44 252.43C205.975 248.104 207.166 243.664 208 239.15C209 234.15 209.5 229.68 209.75 227.35C222.04 226.67 252.18 225.35 263.98 228.19L264.08 232.92L264.9 249.34Z" fill="#EA9B7A"/>
<path d="M243.55 241.71C243.34 243.2 242.66 244.34 242.05 244.25C241.44 244.16 241.11 242.88 241.32 241.39C241.53 239.9 242.21 238.76 242.82 238.85C243.43 238.94 243.76 240.22 243.55 241.71Z" fill="#D96C63"/>
<path d="M277.77 210.06C277.656 210.404 277.516 210.738 277.35 211.06L277.17 211.41C275.608 214.109 273.595 216.52 271.22 218.54C270.8 218.91 270.4 219.25 270.03 219.54C269.29 220.14 268.66 220.61 268.23 220.92L267.6 221.35C267.594 221.376 267.594 221.404 267.6 221.43C267.6 221.65 267.6 221.87 267.54 222.11C267.47 223.02 267.41 224.11 267.37 225.34C267.37 226.34 267.3 227.43 267.27 228.6C267.27 229.47 267.27 250.37 267.27 251.32C250.94 244.02 217.27 248.63 203.75 250.91C204 249.74 204.23 228.59 204.44 227.47C205.311 222.845 205.882 218.169 206.15 213.47C206.353 205.058 205.838 196.644 204.61 188.32C204.52 187.69 204.44 187.07 204.35 186.44C204.29 186.03 204.23 185.63 204.16 185.22C203.7 182.22 203.16 179.17 202.55 176.22C199.87 163.41 201.75 149.96 214.74 148.36C215.69 148.25 216.62 148.14 217.52 148.05C223.64 147.39 228.68 147.17 230.08 147.12H230.47L255.59 154.42L257.98 155.11C259.353 155.55 260.623 155.98 261.79 156.4L263.25 156.93C264.47 157.39 265.57 157.83 266.57 158.28C268.28 158.995 269.911 159.883 271.44 160.93C276.95 164.84 276.09 169.26 275.95 177.99V178.44C275.945 178.49 275.945 178.54 275.95 178.59C275.95 178.95 275.95 179.31 275.95 179.66C275.95 180.79 276 181.91 276.07 183.03C276.16 184.68 276.31 186.32 276.49 187.93C276.56 188.57 276.63 189.21 276.71 189.84C276.79 190.47 276.86 191.03 276.94 191.62C277.89 199.28 279.13 206 277.77 210.06Z" fill="#F28233"/>
<path d="M255.54 154.44C254.13 156.62 251.23 159.09 245.35 158.67C237.23 158.08 231.9 150.34 230.03 147.16H230.42L255.54 154.44Z" fill="#C45F18"/>
<path d="M271.39 161C270.972 168.644 272.565 176.264 276.01 183.1C275.92 181.63 275.88 180.1 275.9 178.66C275.895 178.61 275.895 178.56 275.9 178.51V178C276 169.28 276.9 164.86 271.39 161Z" fill="#EAA97A"/>
<path d="M225.18 171.09C222.3 182.21 211.77 191.09 204.56 188.35L204.29 186.47C204.29 186.07 204.17 185.66 204.11 185.25C203.65 182.25 203.11 179.2 202.49 176.25C199.82 163.44 201.7 149.99 214.69 148.39C215.64 148.28 216.56 148.17 217.47 148.08C224 150.86 228.5 158.28 225.18 171.09Z" fill="#EAA97A"/>
<path d="M226.67 162.61L243.55 224.35L237.55 217.41C239.974 218.659 242.553 219.581 245.22 220.15C248.255 220.799 251.339 221.194 254.44 221.33C257.7 221.5 261.09 221.47 264.56 221.33C268.03 221.19 271.56 220.93 275.18 220.62C277.66 220.424 280.121 221.193 282.048 222.767C283.975 224.341 285.219 226.599 285.521 229.069C285.823 231.539 285.159 234.03 283.668 236.022C282.177 238.014 279.975 239.353 277.52 239.76C273.8 240.36 270.03 240.92 266.16 241.36C262.29 241.8 258.31 242.15 254.16 242.24C249.891 242.363 245.62 242.129 241.39 241.54C236.783 240.892 232.281 239.641 228 237.82C226.644 237.236 225.426 236.373 224.425 235.288C223.424 234.203 222.663 232.919 222.19 231.52L221.98 230.88L201.72 170.17C200.626 166.892 200.879 163.314 202.423 160.222C203.968 157.131 206.677 154.779 209.955 153.685C213.233 152.591 216.811 152.844 219.903 154.388C222.995 155.933 225.346 158.642 226.44 161.92C226.53 162.14 226.61 162.39 226.67 162.61Z" fill="#EAA97A"/>
<path d="M243.67 139C243.67 139 231.67 136.75 228.3 124.65C225.08 113.12 227.56 107.15 230.9 100.92C233.42 96.2401 241.42 89.9201 252.64 92.1701C263.86 94.4201 272.42 100.28 273.64 109.59C276 127 262 148.24 243.67 139Z" fill="#39393B"/>
<path d="M228.87 126.48C228.76 126.48 228.651 126.452 228.554 126.398C228.458 126.343 228.377 126.265 228.32 126.17C226.703 122.861 225.774 119.258 225.59 115.58C225.406 111.901 225.971 108.224 227.25 104.77C228.148 101.983 229.66 99.4324 231.674 97.3071C233.689 95.1818 236.155 93.5357 238.89 92.4901C241.388 91.5134 244.049 91.0213 246.73 91.0401C246.896 91.0504 247.05 91.1254 247.161 91.249C247.271 91.3725 247.328 91.5346 247.32 91.7001C247.316 91.7815 247.296 91.8614 247.262 91.9352C247.227 92.0089 247.178 92.0751 247.118 92.1299C247.057 92.1847 246.987 92.2271 246.91 92.2546C246.833 92.282 246.752 92.2941 246.67 92.2901C244.145 92.2878 241.642 92.7593 239.29 93.6801C236.729 94.6554 234.422 96.1975 232.541 98.1907C230.661 100.184 229.255 102.577 228.43 105.19C227.237 108.48 226.711 111.975 226.882 115.471C227.054 118.966 227.92 122.393 229.43 125.55C229.471 125.621 229.498 125.699 229.509 125.78C229.519 125.861 229.514 125.944 229.492 126.023C229.471 126.102 229.434 126.176 229.384 126.241C229.334 126.305 229.271 126.36 229.2 126.4C229.1 126.458 228.986 126.486 228.87 126.48Z" fill="#C35F18"/>
<path d="M266.92 126.68C266.92 126.68 270.83 123.6 271.85 127.68C272.87 131.76 270 139 265.44 136.81L266.92 126.68Z" fill="#EAA97A"/>
<path d="M263.12 134.18C262.11 134.513 261.202 135.101 260.486 135.888C259.769 136.675 259.268 137.633 259.03 138.67C258.798 139.81 258.909 140.994 259.349 142.071C259.79 143.148 260.54 144.07 261.505 144.72C262.47 145.371 263.606 145.72 264.77 145.725C265.933 145.729 267.072 145.388 268.042 144.745C269.012 144.102 269.769 143.185 270.217 142.111C270.666 141.038 270.786 139.855 270.562 138.713C270.338 137.571 269.78 136.521 268.959 135.697C268.138 134.872 267.091 134.309 265.95 134.08H265.9C265.829 134.245 265.806 134.426 265.834 134.603C265.862 134.781 265.941 134.946 266.06 135.08C266.685 135.247 267.273 135.532 267.79 135.92C268.511 136.454 269.075 137.172 269.423 137.999C269.772 138.825 269.891 139.731 269.769 140.619C269.647 141.508 269.288 142.348 268.73 143.05C268.171 143.752 267.435 144.291 266.596 144.611C265.758 144.93 264.849 145.019 263.965 144.866C263.081 144.713 262.254 144.326 261.572 143.744C260.889 143.162 260.375 142.407 260.085 141.558C259.794 140.71 259.737 139.798 259.92 138.92C260.101 138.005 260.543 137.163 261.193 136.494C261.842 135.825 262.671 135.358 263.58 135.15L263.12 134.18Z" fill="#C35F18"/>
<path d="M255.1 144.16L253.47 154.38C253.47 154.38 245.82 162.18 231.85 148.18C235.6 145.38 237.03 138.91 236.59 134.73C237.587 135.375 238.524 136.108 239.39 136.92C239.764 137.221 240.158 137.495 240.57 137.74C244.26 140.25 249.92 143.52 255.1 144.16Z" fill="#EAA97A"/>
<path d="M255.1 144.16L254.33 149C250.14 147.14 242.73 143.14 239.39 136.92C239.76 137.18 240.15 137.46 240.57 137.74C244.26 140.25 249.92 143.52 255.1 144.16Z" fill="#39393B"/>
<path d="M270.7 124.22C270.49 125.3 270.28 126.33 270.08 127.3C269.88 128.27 269.65 129.36 269.44 130.3C267.89 137.37 266.62 141.15 264.55 142.57C254.13 149.74 237.15 135.22 236.61 134.75C236.61 133.92 236.61 133.09 236.61 132.28C236.717 125.901 237.779 119.574 239.76 113.51C240.198 110.465 241.599 107.64 243.758 105.448C245.918 103.256 248.722 101.813 251.76 101.33C258.22 100.33 263.08 104.1 266.12 105.75C270.7 108.25 272.5 115.2 270.7 124.22Z" fill="#EAA97A"/>
<path d="M240.11 107.1C240.11 107.1 247.41 93.0999 261.97 96.9799C276.53 100.86 277.3 107.66 277.56 111C277.82 114.34 270.02 108.39 270.02 108.39C270.02 108.39 269.75 115.15 267.15 113.07C264 110.55 260.4 105 260.4 105C260.4 105 251.73 113.52 243.49 111.22C238.81 110 240.11 107.1 240.11 107.1Z" fill="#39393B"/>
<path d="M253.64 129.48C253.64 129.48 260.64 131.57 264.3 131.57C264.3 131.57 262.48 136.77 257.3 134.95C256.169 134.575 255.195 133.834 254.532 132.843C253.869 131.852 253.555 130.669 253.64 129.48Z" fill="white"/>
<path d="M266.67 114.87C266.67 114.87 264.85 114.68 265.14 116.45C265.43 118.22 269.39 117.14 271.35 120.68C271.35 120.68 273.24 117 266.67 114.87Z" fill="#39393B"/>
<path d="M258.57 113.23C258.57 113.23 260.32 113.77 259.36 115.28C258.4 116.79 255.18 114.28 252 116.76C252 116.76 251.7 112.6 258.57 113.23Z" fill="#39393B"/>
<path d="M276.12 126.45L270.45 125.45C270.419 125.689 270.372 125.927 270.31 126.16C270.314 126.2 270.314 126.24 270.31 126.28L276.02 127.28C276.075 127.29 276.131 127.289 276.185 127.278C276.239 127.266 276.29 127.244 276.336 127.212C276.381 127.18 276.42 127.14 276.45 127.093C276.48 127.047 276.5 126.995 276.51 126.94C276.522 126.881 276.52 126.821 276.506 126.763C276.492 126.705 276.466 126.651 276.429 126.604C276.392 126.558 276.345 126.52 276.291 126.493C276.238 126.466 276.18 126.452 276.12 126.45Z" fill="#39393B"/>
<path d="M261 121.6C261 121.312 260.98 121.025 260.94 120.74C260.761 119.267 260.129 117.886 259.131 116.788C258.133 115.69 256.819 114.929 255.37 114.61H255.3C253.719 114.281 252.074 114.497 250.631 115.223C249.189 115.95 248.036 117.144 247.36 118.61C247.239 118.866 247.135 119.13 247.05 119.4C246.971 119.639 246.908 119.883 246.86 120.13C246.485 121.917 246.814 123.78 247.78 125.33C248.53 126.547 249.629 127.511 250.933 128.097C252.237 128.683 253.687 128.863 255.096 128.615C256.504 128.368 257.805 127.703 258.831 126.707C259.857 125.711 260.56 124.43 260.85 123.03C260.95 122.56 261 122.081 261 121.6ZM252.58 127.76H252.47C250.859 127.4 249.454 126.422 248.558 125.036C247.662 123.65 247.346 121.967 247.68 120.35C247.748 120.03 247.841 119.715 247.96 119.41C248.399 118.288 249.15 117.315 250.125 116.606C251.1 115.897 252.257 115.482 253.46 115.41C254.013 115.381 254.567 115.421 255.11 115.53C256.264 115.767 257.325 116.329 258.17 117.15C259.162 118.092 259.82 119.331 260.044 120.681C260.268 122.03 260.046 123.416 259.412 124.628C258.778 125.84 257.766 126.812 256.529 127.397C255.293 127.982 253.899 128.148 252.56 127.87L252.58 127.76Z" fill="#39393B"/>
<path d="M273.69 118.68C273.5 118.58 273.3 118.49 273.09 118.4C272.849 118.302 272.602 118.218 272.35 118.15C272.173 118.093 271.993 118.046 271.81 118.01C271.48 117.942 271.146 117.899 270.81 117.88C270.414 117.845 270.016 117.845 269.62 117.88C268.558 117.987 267.534 118.329 266.62 118.88C265.609 119.508 264.773 120.382 264.19 121.42C264.034 121.69 263.897 121.971 263.78 122.26C263.624 122.645 263.504 123.043 263.42 123.45C263.058 125.201 263.365 127.024 264.281 128.559C265.198 130.094 266.657 131.229 268.37 131.74C268.501 131.784 268.634 131.817 268.77 131.84L268.97 131.89C269.644 132.029 270.335 132.069 271.02 132.01H271.34C271.634 131.973 271.924 131.916 272.21 131.84C272.737 131.7 273.247 131.502 273.73 131.25C274.885 130.645 275.851 129.736 276.526 128.621C277.201 127.507 277.557 126.228 277.557 124.925C277.557 123.622 277.201 122.344 276.526 121.229C275.851 120.114 274.885 119.205 273.73 118.6L273.69 118.68ZM276.53 126.28C276.53 126.42 276.47 126.55 276.44 126.68C276.387 126.87 276.324 127.057 276.25 127.24C275.761 128.535 274.857 129.632 273.68 130.36C273.252 130.62 272.796 130.831 272.32 130.99C272.02 131.091 271.712 131.168 271.4 131.22H271.13C270.463 131.3 269.787 131.269 269.13 131.13H268.94H268.83C267.849 130.869 266.944 130.379 266.19 129.7L265.87 129.4C265.159 128.662 264.64 127.761 264.355 126.777C264.071 125.792 264.032 124.753 264.24 123.75C264.34 123.286 264.487 122.834 264.68 122.4C265.305 121.047 266.389 119.959 267.74 119.33C268.574 118.934 269.487 118.729 270.41 118.73H270.87C271.142 118.747 271.413 118.784 271.68 118.84C271.876 118.879 272.07 118.93 272.26 118.99C272.52 119.067 272.774 119.164 273.02 119.28C273.214 119.363 273.401 119.46 273.58 119.57C274.709 120.242 275.6 121.25 276.129 122.453C276.658 123.656 276.798 124.994 276.53 126.28Z" fill="#39393B"/>
<path d="M238.31 119.9C238.26 119.889 238.213 119.868 238.17 119.84C238.123 119.81 238.083 119.772 238.051 119.727C238.019 119.682 237.997 119.631 237.985 119.577C237.973 119.523 237.971 119.467 237.981 119.413C237.99 119.358 238.01 119.306 238.04 119.26C240.88 114.82 247.71 118.81 247.78 118.85C247.827 118.879 247.869 118.916 247.902 118.961C247.934 119.006 247.958 119.057 247.971 119.111C247.984 119.165 247.986 119.221 247.977 119.275C247.969 119.33 247.949 119.383 247.92 119.43C247.891 119.477 247.853 119.519 247.809 119.551C247.764 119.584 247.713 119.608 247.659 119.621C247.605 119.634 247.549 119.636 247.495 119.627C247.44 119.619 247.387 119.599 247.34 119.57C247.28 119.57 241.15 115.97 238.76 119.72C238.713 119.793 238.644 119.849 238.564 119.881C238.483 119.914 238.394 119.92 238.31 119.9Z" fill="#39393B"/>
<path d="M264.06 122.57C264.005 122.561 263.952 122.54 263.906 122.509C263.859 122.478 263.82 122.438 263.79 122.39C262.88 120.99 260.94 121.61 260.92 121.62C260.813 121.655 260.696 121.646 260.595 121.596C260.494 121.545 260.417 121.457 260.38 121.35C260.363 121.297 260.356 121.242 260.361 121.187C260.365 121.132 260.38 121.078 260.405 121.029C260.43 120.98 260.465 120.936 260.507 120.9C260.549 120.864 260.598 120.837 260.65 120.82C261.326 120.565 262.066 120.536 262.759 120.736C263.453 120.936 264.064 121.355 264.5 121.93C264.53 121.976 264.55 122.028 264.559 122.083C264.569 122.137 264.567 122.193 264.555 122.247C264.543 122.301 264.521 122.352 264.489 122.397C264.457 122.442 264.417 122.48 264.37 122.51C264.325 122.541 264.275 122.562 264.221 122.573C264.168 122.583 264.113 122.582 264.06 122.57Z" fill="#39393B"/>
<path d="M256.89 121.71C256.66 122.85 255.95 123.71 255.31 123.55C254.67 123.39 254.31 122.38 254.57 121.23C254.83 120.08 255.51 119.23 256.15 119.39C256.79 119.55 257.12 120.56 256.89 121.71Z" fill="#39393B"/>
<path d="M268.23 124C268 125.15 267.29 126 266.65 125.84C266.01 125.68 265.65 124.68 265.91 123.53C266.17 122.38 266.85 121.53 267.49 121.69C268.13 121.85 268.46 122.86 268.23 124Z" fill="#39393B"/>
<path d="M262.38 127.08C262.709 127.149 263.044 127.179 263.38 127.17C263.446 127.168 263.512 127.152 263.571 127.123C263.631 127.093 263.684 127.052 263.726 127.001C263.769 126.95 263.8 126.891 263.818 126.827C263.836 126.763 263.84 126.696 263.83 126.63L263.1 121.27C263.08 121.145 263.013 121.033 262.912 120.956C262.812 120.88 262.686 120.845 262.56 120.86C262.497 120.868 262.436 120.89 262.381 120.922C262.326 120.954 262.278 120.997 262.239 121.049C262.201 121.1 262.174 121.158 262.158 121.22C262.143 121.282 262.14 121.347 262.15 121.41L262.8 126.17C262.121 126.074 261.481 125.794 260.95 125.36C260.901 125.319 260.844 125.289 260.784 125.271C260.723 125.252 260.659 125.246 260.595 125.253C260.532 125.259 260.471 125.278 260.415 125.309C260.359 125.339 260.31 125.38 260.27 125.43C260.23 125.478 260.2 125.534 260.181 125.594C260.163 125.654 260.157 125.717 260.164 125.78C260.17 125.842 260.189 125.903 260.219 125.958C260.25 126.013 260.291 126.061 260.34 126.1C260.93 126.588 261.631 126.924 262.38 127.08Z" fill="#39393B"/>
<path d="M241.28 130.87C241.2 130.99 238.98 134.18 236.61 134.76C236.61 133.93 236.61 133.1 236.61 132.29C238.268 132.259 239.885 131.767 241.28 130.87Z" fill="#39393B"/>
<path d="M240.79 122.48C240.79 122.48 237.46 115.4 233.12 119.56C229.54 122.98 232.67 134.43 238.87 131.98L240.79 122.48Z" fill="#EAA97A"/>
<path d="M232.58 128.59C231.572 128.928 230.668 129.518 229.952 130.304C229.236 131.09 228.733 132.045 228.49 133.08C228.277 134.121 228.351 135.201 228.703 136.204C229.055 137.207 229.672 138.096 230.489 138.776C231.306 139.456 232.292 139.902 233.342 140.066C234.392 140.231 235.467 140.107 236.452 139.709C237.438 139.311 238.297 138.654 238.939 137.806C239.581 136.959 239.98 135.953 240.096 134.897C240.212 133.84 240.039 132.772 239.596 131.806C239.153 130.84 238.456 130.012 237.58 129.41C236.931 128.958 236.196 128.644 235.42 128.49H235.36C235.297 128.657 235.279 128.837 235.309 129.013C235.339 129.189 235.415 129.354 235.53 129.49C236.478 129.734 237.334 130.251 237.991 130.977C238.648 131.703 239.078 132.606 239.226 133.573C239.375 134.541 239.236 135.531 238.827 136.421C238.418 137.311 237.757 138.061 236.926 138.578C236.094 139.095 235.129 139.357 234.151 139.331C233.172 139.304 232.222 138.991 231.42 138.43C230.617 137.869 229.997 137.085 229.636 136.175C229.275 135.265 229.19 134.268 229.39 133.31C229.569 132.395 230.008 131.551 230.656 130.88C231.304 130.209 232.132 129.741 233.04 129.53L232.58 128.59Z" fill="#C35F18"/>
<path d="M238.62 130C238.683 130.006 238.747 129.998 238.807 129.979C238.867 129.96 238.923 129.929 238.972 129.888C239.02 129.847 239.06 129.797 239.089 129.741C239.118 129.685 239.135 129.623 239.14 129.56C239.289 127.992 239.024 126.412 238.371 124.978C237.719 123.544 236.701 122.307 235.42 121.39C235.367 121.355 235.307 121.331 235.245 121.319C235.183 121.308 235.118 121.308 235.056 121.321C234.994 121.334 234.935 121.359 234.882 121.395C234.83 121.431 234.785 121.477 234.75 121.53C234.715 121.583 234.691 121.643 234.68 121.705C234.668 121.768 234.668 121.832 234.681 121.894C234.694 121.956 234.72 122.015 234.755 122.068C234.791 122.12 234.837 122.165 234.89 122.2C236.028 123.019 236.931 124.122 237.509 125.4C238.086 126.678 238.318 128.085 238.18 129.48C238.172 129.607 238.213 129.732 238.295 129.829C238.377 129.926 238.494 129.987 238.62 130Z" fill="#39393B"/>
<path d="M234.8 126.25C234.906 126.273 235.017 126.255 235.11 126.2C235.59 125.96 237 125.39 237.77 125.76C237.827 125.794 237.89 125.815 237.956 125.823C238.022 125.831 238.088 125.825 238.152 125.806C238.215 125.787 238.274 125.755 238.324 125.712C238.375 125.669 238.416 125.616 238.445 125.557C238.474 125.498 238.49 125.433 238.493 125.367C238.496 125.3 238.485 125.234 238.461 125.173C238.437 125.111 238.401 125.055 238.354 125.008C238.307 124.961 238.252 124.924 238.19 124.9C236.85 124.25 234.89 125.24 234.67 125.35C234.613 125.378 234.563 125.418 234.522 125.466C234.48 125.515 234.45 125.571 234.431 125.632C234.412 125.693 234.406 125.757 234.413 125.82C234.42 125.883 234.439 125.944 234.47 126C234.502 126.064 234.548 126.121 234.605 126.164C234.663 126.208 234.729 126.237 234.8 126.25Z" fill="#39393B"/>
<path d="M245.1 110.47C245.1 110.47 240.61 122.66 240.36 125.12C240.03 128.46 235.6 116.99 240.06 107.19L245.1 110.47Z" fill="#39393B"/>
<path d="M320.11 368.92H301.62C301.62 368.92 297.35 348.4 295.91 336.92C294.47 325.44 293.73 298.14 293.73 298.14C293.73 298.14 279 302.92 248.16 301.14C179.83 297.14 205.74 246.95 205.74 246.95C208.05 250.14 225.36 254.53 235.03 256.05C264.7 258.9 287.25 263.94 302.69 270.6C306.117 272.052 309.432 273.753 312.61 275.69C316.33 277.98 318.66 284.94 320.06 294.1C324.28 321.57 320.11 368.92 320.11 368.92Z" fill="#39393B"/>
<path d="M319.6 392.6H306.55L304.04 377.29L302.66 368.92H318.88L319.13 377.29L319.6 392.6Z" fill="#EA9B7A"/>
<path d="M319.6 392.6H306.55L304.68 381.21L304.04 377.29H319.13L319.26 381.35L319.6 392.6Z" fill="#FAAF3A"/>
<path d="M319.26 381.35L304.68 381.21L304.04 377.29H319.13L319.26 381.35Z" fill="#C77E2E"/>
<path d="M351.8 413.21H302.45C302.045 412.352 301.824 411.419 301.8 410.47C301.49 406.29 302.8 399.63 303.47 395.47C303.55 394.98 303.62 394.52 303.67 394.11C303.754 393.54 303.804 392.966 303.82 392.39C303.82 388.96 306.82 389.55 306.82 389.55C311.82 394.45 317.47 387.11 320.82 389.55L321.25 389.88C321.53 390.1 321.95 390.44 322.53 390.93C323.38 391.63 324.53 392.65 326.16 394.09C330.07 397.61 336.74 399.94 342.41 402.31C343.13 402.62 343.8 402.92 344.41 403.22L345.75 403.9C350.38 406.41 351.86 408.8 352.19 410.54C352.39 411.448 352.251 412.397 351.8 413.21Z" fill="#39393B"/>
<path d="M345.76 403.83C344.49 404.83 341.66 406.83 339.39 406.83H339.09C337.49 406.69 331.61 403.83 326.83 401.17C324.08 399.67 321.58 398.17 319.78 396.99C316.78 395.05 316.31 394.3 316.2 393.79C315.76 391.84 318.98 390.48 321.2 389.79C321.48 390.01 321.9 390.35 322.48 390.84C319.68 391.6 317.38 392.84 317.48 393.48C317.76 394.06 320.68 396.29 327.66 400.11C332.99 403.03 338.05 405.38 339.17 405.48C340.69 405.6 342.92 404.22 344.38 403.13L345.76 403.83Z" fill="#181819"/>
<path d="M351.8 413.21H302.45C302.045 412.352 301.823 411.419 301.8 410.47H352.2C352.415 411.401 352.272 412.379 351.8 413.21Z" fill="#181819"/>
<path d="M307.48 413.21H306C306.941 412.133 307.66 410.881 308.115 409.525C308.569 408.169 308.751 406.737 308.65 405.31C308.513 403.393 307.981 401.526 307.086 399.825C306.191 398.124 304.953 396.628 303.45 395.43C303.53 394.94 303.6 394.48 303.65 394.07C305.433 395.369 306.91 397.044 307.976 398.975C309.042 400.907 309.672 403.049 309.82 405.25C310.021 408.098 309.191 410.924 307.48 413.21Z" fill="#181819"/>
<path d="M325.31 396.93C325.109 396.936 324.913 396.866 324.76 396.735C324.607 396.604 324.509 396.421 324.484 396.221C324.459 396.021 324.509 395.819 324.625 395.655C324.741 395.49 324.914 395.374 325.11 395.33L328.2 394.56C328.41 394.508 328.631 394.542 328.816 394.654C329 394.765 329.133 394.946 329.185 395.155C329.237 395.365 329.203 395.586 329.092 395.771C328.98 395.956 328.8 396.088 328.59 396.14L325.51 396.91L325.31 396.93Z" fill="white"/>
<path d="M322.25 394.36C322.049 394.366 321.853 394.296 321.7 394.165C321.547 394.034 321.449 393.85 321.424 393.651C321.399 393.451 321.449 393.249 321.565 393.084C321.681 392.92 321.854 392.804 322.05 392.76L325.13 392C325.235 391.968 325.346 391.957 325.455 391.969C325.564 391.981 325.67 392.016 325.766 392.07C325.862 392.124 325.945 392.197 326.012 392.285C326.078 392.372 326.126 392.473 326.153 392.579C326.179 392.686 326.184 392.797 326.166 392.906C326.148 393.014 326.109 393.118 326.049 393.211C325.99 393.303 325.913 393.383 325.822 393.445C325.731 393.507 325.628 393.549 325.52 393.57L322.44 394.34C322.378 394.356 322.314 394.363 322.25 394.36Z" fill="white"/>
<path d="M328.39 398.72C328.208 398.719 328.032 398.657 327.889 398.545C327.746 398.433 327.645 398.276 327.6 398.1C327.572 397.995 327.565 397.885 327.58 397.777C327.595 397.669 327.632 397.566 327.688 397.472C327.744 397.379 327.818 397.298 327.906 397.234C327.994 397.17 328.094 397.124 328.2 397.1L331.28 396.33C331.49 396.278 331.711 396.312 331.896 396.423C332.081 396.535 332.213 396.715 332.265 396.925C332.317 397.134 332.283 397.356 332.172 397.541C332.06 397.725 331.88 397.858 331.67 397.91L328.59 398.68L328.39 398.72Z" fill="white"/>
<path d="M331.47 400.44C331.291 400.441 331.116 400.381 330.974 400.27C330.833 400.16 330.733 400.005 330.69 399.83C330.662 399.726 330.654 399.617 330.669 399.509C330.683 399.402 330.719 399.299 330.774 399.206C330.829 399.112 330.902 399.031 330.989 398.967C331.076 398.902 331.175 398.856 331.28 398.83L334.36 398.07C334.57 398.018 334.791 398.052 334.976 398.164C335.161 398.275 335.293 398.456 335.345 398.665C335.397 398.875 335.363 399.096 335.252 399.281C335.14 399.466 334.96 399.598 334.75 399.65L331.67 400.41C331.605 400.43 331.538 400.441 331.47 400.44Z" fill="white"/>
<path d="M334.84 402C334.658 402 334.481 401.94 334.337 401.827C334.194 401.715 334.093 401.557 334.05 401.38C334.02 401.275 334.012 401.166 334.025 401.058C334.039 400.95 334.075 400.847 334.13 400.753C334.185 400.659 334.259 400.578 334.347 400.514C334.434 400.45 334.534 400.404 334.64 400.38L337.72 399.61C337.824 399.584 337.932 399.578 338.038 399.593C338.143 399.609 338.245 399.645 338.337 399.7C338.429 399.755 338.509 399.827 338.573 399.913C338.637 399.999 338.684 400.096 338.71 400.2C338.736 400.304 338.742 400.412 338.726 400.517C338.711 400.623 338.675 400.725 338.62 400.817C338.565 400.909 338.493 400.989 338.407 401.053C338.321 401.117 338.224 401.164 338.12 401.19L335 402C334.947 402.007 334.893 402.007 334.84 402Z" fill="white"/>
<path d="M338.48 403.4C338.284 403.393 338.097 403.317 337.953 403.184C337.809 403.051 337.717 402.871 337.694 402.677C337.671 402.482 337.718 402.286 337.828 402.123C337.937 401.96 338.101 401.842 338.29 401.79L341.37 401.03C341.58 400.978 341.801 401.012 341.986 401.124C342.171 401.235 342.303 401.416 342.355 401.625C342.407 401.835 342.373 402.056 342.262 402.241C342.15 402.426 341.97 402.558 341.76 402.61L338.68 403.37C338.615 403.39 338.548 403.4 338.48 403.4Z" fill="white"/>
<path d="M388.21 246.16V250.26C388.21 252.62 386.78 254.53 385.02 254.53H163.56C161.8 254.53 160.38 252.62 160.38 250.26V246.16C160.38 243.8 161.8 241.89 163.56 241.89H385C386.78 241.89 388.21 243.8 388.21 246.16Z" fill="#585859"/>
<path d="M388.21 247.46H160.38V249.34H388.21V247.46Z" fill="#39393B"/>
<path d="M381.55 265.06H173.38C172.932 265.06 172.502 264.882 172.185 264.565C171.868 264.248 171.69 263.818 171.69 263.37V254.48H383.24V263.37C383.242 263.592 383.199 263.813 383.114 264.018C383.03 264.224 382.905 264.411 382.748 264.568C382.591 264.725 382.404 264.85 382.198 264.934C381.993 265.018 381.772 265.061 381.55 265.06Z" fill="#39393B"/>
<path d="M372.21 317.31H186.04V324.57H372.21V317.31Z" fill="#39393B"/>
<path d="M172.61 414.5L208.66 265.06H196L159.96 414.5H172.61Z" fill="#585859"/>
<path d="M385.38 414.5L349.34 265.06H361.99L398.04 414.5H385.38Z" fill="#585859"/>
<path d="M386.92 162.64L373.67 218.64L373.32 220.11L372.43 223.89C372.241 224.682 371.791 225.386 371.153 225.891C370.514 226.395 369.724 226.67 368.91 226.67H279.64C279.094 226.669 278.556 226.546 278.065 226.308C277.574 226.07 277.143 225.724 276.805 225.296C276.466 224.868 276.229 224.369 276.11 223.836C275.992 223.304 275.995 222.751 276.12 222.22L290.61 161C290.795 160.206 291.244 159.497 291.883 158.991C292.523 158.484 293.314 158.209 294.13 158.21H383.39C383.935 158.21 384.472 158.332 384.962 158.568C385.453 158.805 385.884 159.148 386.223 159.574C386.562 160 386.801 160.497 386.922 161.027C387.043 161.558 387.042 162.109 386.92 162.64Z" fill="#39393B"/>
<path d="M373.67 218.68L373.32 220.15H280.64V218.68H373.67Z" fill="#585859"/>
<path d="M343.55 194.85C343.311 196.753 342.395 198.507 340.971 199.792C339.547 201.077 337.708 201.807 335.79 201.85C334.899 201.872 334.014 201.7 333.197 201.345C332.379 200.989 331.649 200.46 331.058 199.793C330.467 199.127 330.028 198.339 329.773 197.485C329.517 196.631 329.452 195.732 329.58 194.85C329.819 192.948 330.733 191.196 332.155 189.911C333.578 188.626 335.414 187.895 337.33 187.85C338.221 187.83 339.105 188.003 339.922 188.359C340.739 188.715 341.469 189.244 342.061 189.91C342.652 190.576 343.092 191.363 343.349 192.216C343.607 193.069 343.675 193.968 343.55 194.85Z" fill="#585859"/>
<path d="M297.67 158.19L282.24 226.71H279.64C279.094 226.709 278.556 226.586 278.065 226.348C277.574 226.11 277.143 225.764 276.805 225.336C276.466 224.908 276.229 224.409 276.11 223.876C275.992 223.344 275.995 222.791 276.12 222.26L290.61 161C290.795 160.206 291.244 159.497 291.883 158.991C292.523 158.484 293.314 158.209 294.13 158.21L297.67 158.19Z" fill="#585859"/>
<path d="M323.52 226.71L320.82 241.94H329.76L332.47 226.71H323.52Z" fill="white"/>
<path d="M307.43 239.32L309.26 236.75C309.582 236.296 310.008 235.926 310.502 235.671C310.996 235.415 311.544 235.281 312.1 235.28H336.62C337.257 235.279 337.882 235.453 338.427 235.783C338.971 236.113 339.415 236.585 339.71 237.15L340.95 239.51C341.082 239.763 341.147 240.046 341.139 240.331C341.13 240.617 341.048 240.895 340.9 241.139C340.752 241.384 340.544 241.586 340.295 241.726C340.046 241.866 339.766 241.94 339.48 241.94H308.78C308.476 241.939 308.178 241.855 307.918 241.696C307.659 241.538 307.448 241.311 307.309 241.04C307.169 240.77 307.107 240.467 307.128 240.163C307.15 239.86 307.254 239.568 307.43 239.32Z" fill="white"/>
<path d="M256.34 241.93H330L330.8 239.15C330.916 238.743 330.936 238.314 330.858 237.898C330.781 237.482 330.608 237.089 330.353 236.751C330.098 236.413 329.768 236.138 329.39 235.949C329.011 235.76 328.594 235.661 328.17 235.66H260.17C259.575 235.662 258.997 235.859 258.524 236.22C258.051 236.581 257.709 237.087 257.55 237.66L256.34 241.93Z" fill="white"/>
<path d="M140.47 293.05V298.68H142C142.177 298.68 142.352 298.715 142.515 298.783C142.679 298.851 142.827 298.951 142.951 299.076C143.076 299.202 143.174 299.35 143.241 299.514C143.308 299.678 143.342 299.853 143.34 300.03V300.25C143.342 300.427 143.308 300.602 143.241 300.766C143.174 300.93 143.076 301.079 142.951 301.204C142.827 301.33 142.679 301.429 142.515 301.497C142.352 301.565 142.177 301.6 142 301.6H76.7202C76.5115 301.6 76.3048 301.559 76.1124 301.478C75.9199 301.397 75.7455 301.279 75.5993 301.13C75.4531 300.981 75.3381 300.804 75.261 300.61C75.1839 300.416 75.1462 300.209 75.1502 300V291.9C75.1502 291.484 75.3156 291.084 75.61 290.79C75.9045 290.496 76.3038 290.33 76.7202 290.33H142C142.177 290.33 142.352 290.365 142.515 290.433C142.679 290.501 142.827 290.601 142.951 290.726C143.076 290.852 143.174 291 143.241 291.164C143.308 291.328 143.342 291.503 143.34 291.68C143.34 292.035 143.199 292.376 142.948 292.628C142.696 292.879 142.356 293.02 142 293.02L140.47 293.05Z" fill="#C41A4B"/>
<path d="M85.2302 293.05H140.66V298.68H85.2302C84.4849 298.68 83.7702 298.384 83.2432 297.857C82.7162 297.33 82.4202 296.615 82.4202 295.87C82.4202 295.125 82.7162 294.41 83.2432 293.883C83.7702 293.356 84.4849 293.06 85.2302 293.06V293.05Z" fill="white"/>
<path d="M69.3801 280.91V287.13H67.8501C67.6635 287.139 67.4806 287.185 67.3117 287.264C67.1429 287.344 66.9914 287.456 66.866 287.595C66.7406 287.733 66.6437 287.895 66.5809 288.071C66.5181 288.247 66.4907 288.433 66.5001 288.62V288.87C66.4907 289.056 66.5181 289.243 66.5809 289.419C66.6437 289.595 66.7406 289.757 66.866 289.895C66.9914 290.033 67.1429 290.146 67.3117 290.225C67.4806 290.305 67.6635 290.351 67.8501 290.36H133.13C133.347 290.35 133.559 290.297 133.756 290.204C133.952 290.112 134.128 289.981 134.274 289.821C134.42 289.66 134.533 289.472 134.606 289.268C134.679 289.063 134.711 288.847 134.7 288.63V279.63C134.711 279.413 134.679 279.196 134.606 278.992C134.533 278.788 134.42 278.6 134.274 278.439C134.128 278.279 133.952 278.148 133.756 278.056C133.559 277.963 133.347 277.91 133.13 277.9H67.8501C67.6635 277.909 67.4806 277.955 67.3117 278.034C67.1429 278.114 66.9914 278.226 66.866 278.365C66.7406 278.503 66.6437 278.665 66.5809 278.841C66.5181 279.017 66.4907 279.203 66.5001 279.39C66.4907 279.576 66.5181 279.763 66.5809 279.939C66.6437 280.115 66.7406 280.277 66.866 280.415C66.9914 280.553 67.1429 280.666 67.3117 280.745C67.4806 280.825 67.6635 280.871 67.8501 280.88L69.3801 280.91Z" fill="#1DBF53"/>
<path d="M124.32 287.13H69.1901V280.91H124.32C124.73 280.91 125.136 280.991 125.515 281.149C125.894 281.306 126.237 281.537 126.526 281.828C126.815 282.119 127.044 282.464 127.199 282.844C127.354 283.223 127.433 283.63 127.43 284.04C127.425 284.861 127.095 285.647 126.512 286.226C125.93 286.805 125.141 287.13 124.32 287.13Z" fill="white"/>
<path d="M131.07 262.06H76.8701C74.081 262.06 71.8201 264.321 71.8201 267.11C71.8201 269.899 74.081 272.16 76.8701 272.16H131.07C133.859 272.16 136.12 269.899 136.12 267.11C136.12 264.321 133.859 262.06 131.07 262.06Z" fill="#C41A4B"/>
<path d="M137.44 272.16H78.9C77.3094 272.16 76.02 273.449 76.02 275.04V275.05C76.02 276.64 77.3094 277.93 78.9 277.93H137.44C139.031 277.93 140.32 276.64 140.32 275.05V275.04C140.32 273.449 139.031 272.16 137.44 272.16Z" fill="#5783E8"/>
<path d="M549.75 416.94H26.08C25.5164 416.856 25.0072 416.557 24.6588 416.106C24.3103 415.655 24.1495 415.087 24.21 414.52C24.1495 413.953 24.3103 413.385 24.6588 412.934C25.0072 412.483 25.5164 412.185 26.08 412.1H549.75C550.314 412.185 550.823 412.483 551.171 412.934C551.52 413.385 551.68 413.953 551.62 414.52C551.68 415.087 551.52 415.655 551.171 416.106C550.823 416.557 550.314 416.856 549.75 416.94Z" fill="#0C2350"/>
<path d="M197.16 235H189.08C188.984 235.001 188.888 234.984 188.799 234.948C188.71 234.912 188.628 234.858 188.56 234.79C187.03 233.21 188.13 231.32 189.66 231.32H193.47C193.664 231.32 193.849 231.243 193.986 231.106C194.123 230.969 194.2 230.784 194.2 230.59V220.06C194.2 219.965 194.181 219.87 194.144 219.782C194.108 219.694 194.054 219.614 193.986 219.547C193.918 219.48 193.837 219.427 193.749 219.392C193.66 219.356 193.566 219.339 193.47 219.34H189.08C188.983 219.34 188.887 219.32 188.798 219.282C188.709 219.244 188.628 219.189 188.56 219.12C187.03 217.54 188.13 215.65 189.66 215.65H197.16C197.354 215.65 197.539 215.727 197.676 215.864C197.813 216.001 197.89 216.186 197.89 216.38V234.27C197.89 234.464 197.813 234.649 197.676 234.786C197.539 234.923 197.354 235 197.16 235Z" fill="#C41A4B"/>
<path d="M187.19 208.4H168.2C166.831 208.4 165.72 209.51 165.72 210.88V239.77C165.72 241.14 166.831 242.25 168.2 242.25H187.19C188.56 242.25 189.67 241.14 189.67 239.77V210.88C189.67 209.51 188.56 208.4 187.19 208.4Z" fill="#C41A4B"/>
<path d="M175.35 205.18C175.35 205.18 167.61 202.04 170.01 196.35C172.41 190.66 181.11 191.42 176.16 183.19C182.16 186.48 183.03 193.81 178.39 195.61C173.75 197.41 173.51 202 175.35 205.18Z" fill="white"/>
<path d="M182.62 205.18C182.62 205.18 177.12 202.94 178.82 198.9C180.52 194.86 186.72 195.39 183.2 189.54C187.44 191.88 188.08 197.1 184.78 198.37C181.48 199.64 181.32 202.88 182.62 205.18Z" fill="white"/>
</svg>
